<svg width="88" height="62" viewBox="0 0 88 62" fill="none" xmlns="http://www.w3.org/2000/svg">
<path d="M24.7581 7.39855L19.5582 2.59868C19.1877 2.25665 18.6224 2.24018 18.2459 2.5757C2.71867 16.415 -3.91595 48.6115 8.40964 56.5C19.749 63.7573 34.4096 61.5 37.4096 43.5C39.7271 29.5955 28.2455 24.8282 21.6007 24.0664C21.1853 24.0188 20.8284 23.7342 20.7447 23.3245C19.7052 18.2391 22.7911 11.9312 24.9078 8.72783C25.1868 8.30566 25.1299 7.74177 24.7581 7.39855Z" stroke="#292938" stroke-width="3"/>
<path d="M72.6682 7.39855L67.4684 2.59868C67.0978 2.25665 66.5325 2.24018 66.1561 2.5757C50.6288 16.415 43.9942 48.6115 56.3198 56.5C67.6592 63.7573 82.3198 61.5 85.3198 43.5C87.6372 29.5955 76.1556 24.8282 69.5109 24.0664C69.0954 24.0188 68.7386 23.7342 68.6549 23.3245C67.6154 18.2391 70.7013 11.9312 72.818 8.72783C73.0969 8.30566 73.0401 7.74177 72.6682 7.39855Z" stroke="#292938" stroke-width="3"/>
</svg>
