<svg width="322" height="271" viewBox="0 0 322 271" fill="none" xmlns="http://www.w3.org/2000/svg">
<g filter="url(#filter0_dddddd_0_419)">
<path d="M120.049 2.92705C120.348 2.00574 121.652 2.00574 121.951 2.92705L123.245 6.90983C123.379 7.32185 123.763 7.60081 124.196 7.60081H128.384C129.353 7.60081 129.755 8.84043 128.972 9.40983L125.584 11.8713C125.233 12.126 125.087 12.5773 125.22 12.9894L126.515 16.9721C126.814 17.8934 125.759 18.6596 124.976 18.0902L121.588 15.6287C121.237 15.374 120.763 15.374 120.412 15.6287L117.024 18.0902C116.241 18.6596 115.186 17.8934 115.485 16.9721L116.78 12.9894C116.913 12.5773 116.767 12.126 116.416 11.8713L113.028 9.40983C112.245 8.84043 112.647 7.60081 113.616 7.60081H117.804C118.237 7.60081 118.621 7.32185 118.755 6.90983L120.049 2.92705Z" fill="url(#paint0_linear_0_419)"/>
</g>
<g filter="url(#filter1_dddddd_0_419)">
<path d="M140.049 2.92705C140.348 2.00574 141.652 2.00574 141.951 2.92705L143.245 6.90983C143.379 7.32185 143.763 7.60081 144.196 7.60081H148.384C149.353 7.60081 149.755 8.84043 148.972 9.40983L145.584 11.8713C145.233 12.126 145.087 12.5773 145.22 12.9894L146.515 16.9721C146.814 17.8934 145.759 18.6596 144.976 18.0902L141.588 15.6287C141.237 15.374 140.763 15.374 140.412 15.6287L137.024 18.0902C136.241 18.6596 135.186 17.8934 135.485 16.9721L136.78 12.9894C136.913 12.5773 136.767 12.126 136.416 11.8713L133.028 9.40983C132.245 8.84043 132.647 7.60081 133.616 7.60081H137.804C138.237 7.60081 138.621 7.32185 138.755 6.90983L140.049 2.92705Z" fill="url(#paint1_linear_0_419)"/>
</g>
<g filter="url(#filter2_dddddd_0_419)">
<path d="M160.049 2.92705C160.348 2.00574 161.652 2.00574 161.951 2.92705L163.245 6.90983C163.379 7.32185 163.763 7.60081 164.196 7.60081H168.384C169.353 7.60081 169.755 8.84043 168.972 9.40983L165.584 11.8713C165.233 12.126 165.087 12.5773 165.22 12.9894L166.515 16.9721C166.814 17.8934 165.759 18.6596 164.976 18.0902L161.588 15.6287C161.237 15.374 160.763 15.374 160.412 15.6287L157.024 18.0902C156.241 18.6596 155.186 17.8934 155.485 16.9721L156.78 12.9894C156.913 12.5773 156.767 12.126 156.416 11.8713L153.028 9.40983C152.245 8.84043 152.647 7.60081 153.616 7.60081H157.804C158.237 7.60081 158.621 7.32185 158.755 6.90983L160.049 2.92705Z" fill="url(#paint2_linear_0_419)"/>
</g>
<g filter="url(#filter3_dddddd_0_419)">
<path d="M180.049 2.92705C180.348 2.00574 181.652 2.00574 181.951 2.92705L183.245 6.90983C183.379 7.32185 183.763 7.60081 184.196 7.60081H188.384C189.353 7.60081 189.755 8.84043 188.972 9.40983L185.584 11.8713C185.233 12.126 185.087 12.5773 185.22 12.9894L186.515 16.9721C186.814 17.8934 185.759 18.6596 184.976 18.0902L181.588 15.6287C181.237 15.374 180.763 15.374 180.412 15.6287L177.024 18.0902C176.241 18.6596 175.186 17.8934 175.485 16.9721L176.78 12.9894C176.913 12.5773 176.767 12.126 176.416 11.8713L173.028 9.40983C172.245 8.84043 172.647 7.60081 173.616 7.60081H177.804C178.237 7.60081 178.621 7.32185 178.755 6.90983L180.049 2.92705Z" fill="url(#paint3_linear_0_419)"/>
</g>
<g filter="url(#filter4_dddddd_0_419)">
<path d="M200.049 2.92705C200.348 2.00574 201.652 2.00574 201.951 2.92705L203.245 6.90983C203.379 7.32185 203.763 7.60081 204.196 7.60081H208.384C209.353 7.60081 209.755 8.84043 208.972 9.40983L205.584 11.8713C205.233 12.126 205.087 12.5773 205.22 12.9894L206.515 16.9721C206.814 17.8934 205.759 18.6596 204.976 18.0902L201.588 15.6287C201.237 15.374 200.763 15.374 200.412 15.6287L197.024 18.0902C196.241 18.6596 195.186 17.8934 195.485 16.9721L196.78 12.9894C196.913 12.5773 196.767 12.126 196.416 11.8713L193.028 9.40983C192.245 8.84043 192.647 7.60081 193.616 7.60081H197.804C198.237 7.60081 198.621 7.32185 198.755 6.90983L200.049 2.92705Z" fill="url(#paint4_linear_0_419)"/>
</g>
<defs>
<filter id="filter0_dddddd_0_419" x="0.656799" y="0.421961" width="240.686" height="269.768" filterUnits="userSpaceOnUse" color-interpolation-filters="sRGB">
<feFlood flood-opacity="0" result="BackgroundImageFix"/>
<feColorMatrix in="SourceAlpha" type="matrix" values="0 0 0 0 0 0 0 0 0 0 0 0 0 0 0 0 0 0 127 0" result="hardAlpha"/>
<feOffset dy="2.5916"/>
<feGaussianBlur stdDeviation="2.20286"/>
<feColorMatrix type="matrix" values="0 0 0 0 0 0 0 0 0 0 0 0 0 0 0 0 0 0 0.0601852 0"/>
<feBlend mode="normal" in2="BackgroundImageFix" result="effect1_dropShadow_0_419"/>
<feColorMatrix in="SourceAlpha" type="matrix" values="0 0 0 0 0 0 0 0 0 0 0 0 0 0 0 0 0 0 127 0" result="hardAlpha"/>
<feOffset dy="11.4031"/>
<feGaussianBlur stdDeviation="4.56122"/>
<feColorMatrix type="matrix" values="0 0 0 0 0 0 0 0 0 0 0 0 0 0 0 0 0 0 0.0981481 0"/>
<feBlend mode="normal" in2="effect1_dropShadow_0_419" result="effect2_dropShadow_0_419"/>
<feColorMatrix in="SourceAlpha" type="matrix" values="0 0 0 0 0 0 0 0 0 0 0 0 0 0 0 0 0 0 127 0" result="hardAlpha"/>
<feOffset dy="27.9893"/>
<feGaussianBlur stdDeviation="9.09653"/>
<feColorMatrix type="matrix" values="0 0 0 0 0 0 0 0 0 0 0 0 0 0 0 0 0 0 0.125 0"/>
<feBlend mode="normal" in2="effect2_dropShadow_0_419" result="effect3_dropShadow_0_419"/>
<feColorMatrix in="SourceAlpha" type="matrix" values="0 0 0 0 0 0 0 0 0 0 0 0 0 0 0 0 0 0 127 0" result="hardAlpha"/>
<feOffset dy="53.9054"/>
<feGaussianBlur stdDeviation="17.8302"/>
<feColorMatrix type="matrix" values="0 0 0 0 0 0 0 0 0 0 0 0 0 0 0 0 0 0 0.151852 0"/>
<feBlend mode="normal" in2="effect3_dropShadow_0_419" result="effect4_dropShadow_0_419"/>
<feColorMatrix in="SourceAlpha" type="matrix" values="0 0 0 0 0 0 0 0 0 0 0 0 0 0 0 0 0 0 127 0" result="hardAlpha"/>
<feOffset dy="90.7062"/>
<feGaussianBlur stdDeviation="32.7838"/>
<feColorMatrix type="matrix" values="0 0 0 0 0 0 0 0 0 0 0 0 0 0 0 0 0 0 0.189815 0"/>
<feBlend mode="normal" in2="effect4_dropShadow_0_419" result="effect5_dropShadow_0_419"/>
<feColorMatrix in="SourceAlpha" type="matrix" values="0 0 0 0 0 0 0 0 0 0 0 0 0 0 0 0 0 0 127 0" result="hardAlpha"/>
<feOffset dy="139.947"/>
<feGaussianBlur stdDeviation="55.9787"/>
<feColorMatrix type="matrix" values="0 0 0 0 0 0 0 0 0 0 0 0 0 0 0 0 0 0 0.25 0"/>
<feBlend mode="normal" in2="effect5_dropShadow_0_419" result="effect6_dropShadow_0_419"/>
<feBlend mode="normal" in="SourceGraphic" in2="effect6_dropShadow_0_419" result="shape"/>
</filter>
<filter id="filter1_dddddd_0_419" x="20.6568" y="0.421961" width="240.686" height="269.768" filterUnits="userSpaceOnUse" color-interpolation-filters="sRGB">
<feFlood flood-opacity="0" result="BackgroundImageFix"/>
<feColorMatrix in="SourceAlpha" type="matrix" values="0 0 0 0 0 0 0 0 0 0 0 0 0 0 0 0 0 0 127 0" result="hardAlpha"/>
<feOffset dy="2.5916"/>
<feGaussianBlur stdDeviation="2.20286"/>
<feColorMatrix type="matrix" values="0 0 0 0 0 0 0 0 0 0 0 0 0 0 0 0 0 0 0.0601852 0"/>
<feBlend mode="normal" in2="BackgroundImageFix" result="effect1_dropShadow_0_419"/>
<feColorMatrix in="SourceAlpha" type="matrix" values="0 0 0 0 0 0 0 0 0 0 0 0 0 0 0 0 0 0 127 0" result="hardAlpha"/>
<feOffset dy="11.4031"/>
<feGaussianBlur stdDeviation="4.56122"/>
<feColorMatrix type="matrix" values="0 0 0 0 0 0 0 0 0 0 0 0 0 0 0 0 0 0 0.0981481 0"/>
<feBlend mode="normal" in2="effect1_dropShadow_0_419" result="effect2_dropShadow_0_419"/>
<feColorMatrix in="SourceAlpha" type="matrix" values="0 0 0 0 0 0 0 0 0 0 0 0 0 0 0 0 0 0 127 0" result="hardAlpha"/>
<feOffset dy="27.9893"/>
<feGaussianBlur stdDeviation="9.09653"/>
<feColorMatrix type="matrix" values="0 0 0 0 0 0 0 0 0 0 0 0 0 0 0 0 0 0 0.125 0"/>
<feBlend mode="normal" in2="effect2_dropShadow_0_419" result="effect3_dropShadow_0_419"/>
<feColorMatrix in="SourceAlpha" type="matrix" values="0 0 0 0 0 0 0 0 0 0 0 0 0 0 0 0 0 0 127 0" result="hardAlpha"/>
<feOffset dy="53.9054"/>
<feGaussianBlur stdDeviation="17.8302"/>
<feColorMatrix type="matrix" values="0 0 0 0 0 0 0 0 0 0 0 0 0 0 0 0 0 0 0.151852 0"/>
<feBlend mode="normal" in2="effect3_dropShadow_0_419" result="effect4_dropShadow_0_419"/>
<feColorMatrix in="SourceAlpha" type="matrix" values="0 0 0 0 0 0 0 0 0 0 0 0 0 0 0 0 0 0 127 0" result="hardAlpha"/>
<feOffset dy="90.7062"/>
<feGaussianBlur stdDeviation="32.7838"/>
<feColorMatrix type="matrix" values="0 0 0 0 0 0 0 0 0 0 0 0 0 0 0 0 0 0 0.189815 0"/>
<feBlend mode="normal" in2="effect4_dropShadow_0_419" result="effect5_dropShadow_0_419"/>
<feColorMatrix in="SourceAlpha" type="matrix" values="0 0 0 0 0 0 0 0 0 0 0 0 0 0 0 0 0 0 127 0" result="hardAlpha"/>
<feOffset dy="139.947"/>
<feGaussianBlur stdDeviation="55.9787"/>
<feColorMatrix type="matrix" values="0 0 0 0 0 0 0 0 0 0 0 0 0 0 0 0 0 0 0.25 0"/>
<feBlend mode="normal" in2="effect5_dropShadow_0_419" result="effect6_dropShadow_0_419"/>
<feBlend mode="normal" in="SourceGraphic" in2="effect6_dropShadow_0_419" result="shape"/>
</filter>
<filter id="filter2_dddddd_0_419" x="40.6568" y="0.421961" width="240.686" height="269.768" filterUnits="userSpaceOnUse" color-interpolation-filters="sRGB">
<feFlood flood-opacity="0" result="BackgroundImageFix"/>
<feColorMatrix in="SourceAlpha" type="matrix" values="0 0 0 0 0 0 0 0 0 0 0 0 0 0 0 0 0 0 127 0" result="hardAlpha"/>
<feOffset dy="2.5916"/>
<feGaussianBlur stdDeviation="2.20286"/>
<feColorMatrix type="matrix" values="0 0 0 0 0 0 0 0 0 0 0 0 0 0 0 0 0 0 0.0601852 0"/>
<feBlend mode="normal" in2="BackgroundImageFix" result="effect1_dropShadow_0_419"/>
<feColorMatrix in="SourceAlpha" type="matrix" values="0 0 0 0 0 0 0 0 0 0 0 0 0 0 0 0 0 0 127 0" result="hardAlpha"/>
<feOffset dy="11.4031"/>
<feGaussianBlur stdDeviation="4.56122"/>
<feColorMatrix type="matrix" values="0 0 0 0 0 0 0 0 0 0 0 0 0 0 0 0 0 0 0.0981481 0"/>
<feBlend mode="normal" in2="effect1_dropShadow_0_419" result="effect2_dropShadow_0_419"/>
<feColorMatrix in="SourceAlpha" type="matrix" values="0 0 0 0 0 0 0 0 0 0 0 0 0 0 0 0 0 0 127 0" result="hardAlpha"/>
<feOffset dy="27.9893"/>
<feGaussianBlur stdDeviation="9.09653"/>
<feColorMatrix type="matrix" values="0 0 0 0 0 0 0 0 0 0 0 0 0 0 0 0 0 0 0.125 0"/>
<feBlend mode="normal" in2="effect2_dropShadow_0_419" result="effect3_dropShadow_0_419"/>
<feColorMatrix in="SourceAlpha" type="matrix" values="0 0 0 0 0 0 0 0 0 0 0 0 0 0 0 0 0 0 127 0" result="hardAlpha"/>
<feOffset dy="53.9054"/>
<feGaussianBlur stdDeviation="17.8302"/>
<feColorMatrix type="matrix" values="0 0 0 0 0 0 0 0 0 0 0 0 0 0 0 0 0 0 0.151852 0"/>
<feBlend mode="normal" in2="effect3_dropShadow_0_419" result="effect4_dropShadow_0_419"/>
<feColorMatrix in="SourceAlpha" type="matrix" values="0 0 0 0 0 0 0 0 0 0 0 0 0 0 0 0 0 0 127 0" result="hardAlpha"/>
<feOffset dy="90.7062"/>
<feGaussianBlur stdDeviation="32.7838"/>
<feColorMatrix type="matrix" values="0 0 0 0 0 0 0 0 0 0 0 0 0 0 0 0 0 0 0.189815 0"/>
<feBlend mode="normal" in2="effect4_dropShadow_0_419" result="effect5_dropShadow_0_419"/>
<feColorMatrix in="SourceAlpha" type="matrix" values="0 0 0 0 0 0 0 0 0 0 0 0 0 0 0 0 0 0 127 0" result="hardAlpha"/>
<feOffset dy="139.947"/>
<feGaussianBlur stdDeviation="55.9787"/>
<feColorMatrix type="matrix" values="0 0 0 0 0 0 0 0 0 0 0 0 0 0 0 0 0 0 0.25 0"/>
<feBlend mode="normal" in2="effect5_dropShadow_0_419" result="effect6_dropShadow_0_419"/>
<feBlend mode="normal" in="SourceGraphic" in2="effect6_dropShadow_0_419" result="shape"/>
</filter>
<filter id="filter3_dddddd_0_419" x="60.6568" y="0.421961" width="240.686" height="269.768" filterUnits="userSpaceOnUse" color-interpolation-filters="sRGB">
<feFlood flood-opacity="0" result="BackgroundImageFix"/>
<feColorMatrix in="SourceAlpha" type="matrix" values="0 0 0 0 0 0 0 0 0 0 0 0 0 0 0 0 0 0 127 0" result="hardAlpha"/>
<feOffset dy="2.5916"/>
<feGaussianBlur stdDeviation="2.20286"/>
<feColorMatrix type="matrix" values="0 0 0 0 0 0 0 0 0 0 0 0 0 0 0 0 0 0 0.0601852 0"/>
<feBlend mode="normal" in2="BackgroundImageFix" result="effect1_dropShadow_0_419"/>
<feColorMatrix in="SourceAlpha" type="matrix" values="0 0 0 0 0 0 0 0 0 0 0 0 0 0 0 0 0 0 127 0" result="hardAlpha"/>
<feOffset dy="11.4031"/>
<feGaussianBlur stdDeviation="4.56122"/>
<feColorMatrix type="matrix" values="0 0 0 0 0 0 0 0 0 0 0 0 0 0 0 0 0 0 0.0981481 0"/>
<feBlend mode="normal" in2="effect1_dropShadow_0_419" result="effect2_dropShadow_0_419"/>
<feColorMatrix in="SourceAlpha" type="matrix" values="0 0 0 0 0 0 0 0 0 0 0 0 0 0 0 0 0 0 127 0" result="hardAlpha"/>
<feOffset dy="27.9893"/>
<feGaussianBlur stdDeviation="9.09653"/>
<feColorMatrix type="matrix" values="0 0 0 0 0 0 0 0 0 0 0 0 0 0 0 0 0 0 0.125 0"/>
<feBlend mode="normal" in2="effect2_dropShadow_0_419" result="effect3_dropShadow_0_419"/>
<feColorMatrix in="SourceAlpha" type="matrix" values="0 0 0 0 0 0 0 0 0 0 0 0 0 0 0 0 0 0 127 0" result="hardAlpha"/>
<feOffset dy="53.9054"/>
<feGaussianBlur stdDeviation="17.8302"/>
<feColorMatrix type="matrix" values="0 0 0 0 0 0 0 0 0 0 0 0 0 0 0 0 0 0 0.151852 0"/>
<feBlend mode="normal" in2="effect3_dropShadow_0_419" result="effect4_dropShadow_0_419"/>
<feColorMatrix in="SourceAlpha" type="matrix" values="0 0 0 0 0 0 0 0 0 0 0 0 0 0 0 0 0 0 127 0" result="hardAlpha"/>
<feOffset dy="90.7062"/>
<feGaussianBlur stdDeviation="32.7838"/>
<feColorMatrix type="matrix" values="0 0 0 0 0 0 0 0 0 0 0 0 0 0 0 0 0 0 0.189815 0"/>
<feBlend mode="normal" in2="effect4_dropShadow_0_419" result="effect5_dropShadow_0_419"/>
<feColorMatrix in="SourceAlpha" type="matrix" values="0 0 0 0 0 0 0 0 0 0 0 0 0 0 0 0 0 0 127 0" result="hardAlpha"/>
<feOffset dy="139.947"/>
<feGaussianBlur stdDeviation="55.9787"/>
<feColorMatrix type="matrix" values="0 0 0 0 0 0 0 0 0 0 0 0 0 0 0 0 0 0 0.25 0"/>
<feBlend mode="normal" in2="effect5_dropShadow_0_419" result="effect6_dropShadow_0_419"/>
<feBlend mode="normal" in="SourceGraphic" in2="effect6_dropShadow_0_419" result="shape"/>
</filter>
<filter id="filter4_dddddd_0_419" x="80.6568" y="0.421961" width="240.686" height="269.768" filterUnits="userSpaceOnUse" color-interpolation-filters="sRGB">
<feFlood flood-opacity="0" result="BackgroundImageFix"/>
<feColorMatrix in="SourceAlpha" type="matrix" values="0 0 0 0 0 0 0 0 0 0 0 0 0 0 0 0 0 0 127 0" result="hardAlpha"/>
<feOffset dy="2.5916"/>
<feGaussianBlur stdDeviation="2.20286"/>
<feColorMatrix type="matrix" values="0 0 0 0 0 0 0 0 0 0 0 0 0 0 0 0 0 0 0.0601852 0"/>
<feBlend mode="normal" in2="BackgroundImageFix" result="effect1_dropShadow_0_419"/>
<feColorMatrix in="SourceAlpha" type="matrix" values="0 0 0 0 0 0 0 0 0 0 0 0 0 0 0 0 0 0 127 0" result="hardAlpha"/>
<feOffset dy="11.4031"/>
<feGaussianBlur stdDeviation="4.56122"/>
<feColorMatrix type="matrix" values="0 0 0 0 0 0 0 0 0 0 0 0 0 0 0 0 0 0 0.0981481 0"/>
<feBlend mode="normal" in2="effect1_dropShadow_0_419" result="effect2_dropShadow_0_419"/>
<feColorMatrix in="SourceAlpha" type="matrix" values="0 0 0 0 0 0 0 0 0 0 0 0 0 0 0 0 0 0 127 0" result="hardAlpha"/>
<feOffset dy="27.9893"/>
<feGaussianBlur stdDeviation="9.09653"/>
<feColorMatrix type="matrix" values="0 0 0 0 0 0 0 0 0 0 0 0 0 0 0 0 0 0 0.125 0"/>
<feBlend mode="normal" in2="effect2_dropShadow_0_419" result="effect3_dropShadow_0_419"/>
<feColorMatrix in="SourceAlpha" type="matrix" values="0 0 0 0 0 0 0 0 0 0 0 0 0 0 0 0 0 0 127 0" result="hardAlpha"/>
<feOffset dy="53.9054"/>
<feGaussianBlur stdDeviation="17.8302"/>
<feColorMatrix type="matrix" values="0 0 0 0 0 0 0 0 0 0 0 0 0 0 0 0 0 0 0.151852 0"/>
<feBlend mode="normal" in2="effect3_dropShadow_0_419" result="effect4_dropShadow_0_419"/>
<feColorMatrix in="SourceAlpha" type="matrix" values="0 0 0 0 0 0 0 0 0 0 0 0 0 0 0 0 0 0 127 0" result="hardAlpha"/>
<feOffset dy="90.7062"/>
<feGaussianBlur stdDeviation="32.7838"/>
<feColorMatrix type="matrix" values="0 0 0 0 0 0 0 0 0 0 0 0 0 0 0 0 0 0 0.189815 0"/>
<feBlend mode="normal" in2="effect4_dropShadow_0_419" result="effect5_dropShadow_0_419"/>
<feColorMatrix in="SourceAlpha" type="matrix" values="0 0 0 0 0 0 0 0 0 0 0 0 0 0 0 0 0 0 127 0" result="hardAlpha"/>
<feOffset dy="139.947"/>
<feGaussianBlur stdDeviation="55.9787"/>
<feColorMatrix type="matrix" values="0 0 0 0 0 0 0 0 0 0 0 0 0 0 0 0 0 0 0.25 0"/>
<feBlend mode="normal" in2="effect5_dropShadow_0_419" result="effect6_dropShadow_0_419"/>
<feBlend mode="normal" in="SourceGraphic" in2="effect6_dropShadow_0_419" result="shape"/>
</filter>
<linearGradient id="paint0_linear_0_419" x1="121" y1="0" x2="121" y2="22" gradientUnits="userSpaceOnUse">
<stop stop-color="#6D6D8A"/>
<stop offset="1" stop-color="#37374A"/>
</linearGradient>
<linearGradient id="paint1_linear_0_419" x1="141" y1="0" x2="141" y2="22" gradientUnits="userSpaceOnUse">
<stop stop-color="#6D6D8A"/>
<stop offset="1" stop-color="#37374A"/>
</linearGradient>
<linearGradient id="paint2_linear_0_419" x1="161" y1="0" x2="161" y2="22" gradientUnits="userSpaceOnUse">
<stop stop-color="#6D6D8A"/>
<stop offset="1" stop-color="#37374A"/>
</linearGradient>
<linearGradient id="paint3_linear_0_419" x1="181" y1="0" x2="181" y2="22" gradientUnits="userSpaceOnUse">
<stop stop-color="#6D6D8A"/>
<stop offset="1" stop-color="#37374A"/>
</linearGradient>
<linearGradient id="paint4_linear_0_419" x1="201" y1="0" x2="201" y2="22" gradientUnits="userSpaceOnUse">
<stop stop-color="#6D6D8A"/>
<stop offset="1" stop-color="#37374A"/>
</linearGradient>
</defs>
</svg>
